Coordinates
version=1
nRows=27
nColumns=12
inDegrees=yes

Units are S.I. units (second, meters, Newtons, ...)
Angles are in degrees

endheader
time	SC_y	SC_z	SC_x	AC_y	AC_z	AC_x	GH_y	GH_z	GH_yy	EL_x	PS_y
       0.0              -51.19           13.9          27.25          62.88         -6.399         -12.08         -67.67          2.666           49.5          131.1          107.9
   0.04587              -51.18           13.9          27.26          62.88         -6.398         -12.08         -67.66          2.678          49.51          131.1          107.9
   0.09174              -51.18           13.9          27.27          62.87         -6.397         -12.08         -67.64           2.69          49.52          131.1          107.9
    0.1376              -51.17           13.9          27.28          62.87         -6.397         -12.08         -67.62          2.703          49.53          131.1          107.9
    0.1835              -51.17          13.91          27.29          62.87         -6.396         -12.08          -67.6          2.717          49.53          131.1          107.9
    0.2293              -51.16          13.91           27.3          62.86         -6.395         -12.08         -67.58          2.731          49.54          131.1          107.9
    0.2752              -51.16          13.91          27.31          62.86         -6.394         -12.08         -67.56          2.747          49.55          131.1          107.9
    0.3211              -51.15          13.91          27.32          62.85         -6.393         -12.08         -67.54          2.764          49.56          131.1          107.8
     0.367              -51.14          13.91          27.33          62.85         -6.392         -12.08         -67.51          2.782          49.58          131.1          107.8
    0.4128              -51.14          13.92          27.35          62.84         -6.391         -12.08         -67.48          2.801          49.59          131.1          107.8
    0.4587              -51.13          13.92          27.36          62.84          -6.39         -12.08         -67.46          2.822           49.6          131.1          107.8
    0.5046              -51.12          13.92          27.38          62.83         -6.389         -12.08         -67.43          2.844          49.62          131.1          107.8
    0.5504              -51.11          13.93           27.4          62.83         -6.388         -12.09         -67.39          2.868          49.63          131.1          107.8
    0.5963              -51.11          13.93          27.42          62.82         -6.386         -12.09         -67.36          2.894          49.65          131.1          107.8
    0.6422               -51.1          13.93          27.44          62.81         -6.385         -12.09         -67.32          2.922          49.67          131.1          107.8
     0.688              -51.08          13.94          27.46          62.81         -6.383         -12.09         -67.27          2.952          49.68          131.1          107.8
    0.7339              -51.07          13.94          27.48           62.8         -6.381         -12.09         -67.23          2.986          49.71          131.1          107.8
    0.7798              -51.06          13.95          27.51          62.79         -6.379         -12.09         -67.18          3.022          49.73          131.1          107.7
    0.8257              -51.05          13.95          27.54          62.78         -6.377         -12.09         -67.12          3.061          49.75          131.1          107.7
    0.8715              -51.03          13.96          27.57          62.77         -6.375         -12.09         -67.06          3.104          49.78          131.1          107.7
    0.9174              -51.01          13.96           27.6          62.75         -6.372         -12.09          -67.0          3.151          49.81          131.1          107.7
    0.9633               -51.0          13.97          27.64          62.74          -6.37         -12.09         -66.92          3.203          49.84          131.0          107.7
     1.009              -50.98          13.98          27.68          62.73         -6.367         -12.09         -66.84          3.261          49.88          131.0          107.6
     1.055              -50.95          13.99          27.73          62.71         -6.363         -12.09         -66.76          3.325          49.92          131.0          107.6
     1.101              -50.93           14.0          27.78          62.69         -6.359         -12.09         -66.66          3.395          49.97          131.0          107.6
     1.147               -50.9          14.01          27.84          62.67         -6.355         -12.09         -66.55          3.474          50.02          131.0          107.6
     1.193              -50.87          14.02           27.9          62.65          -6.35          -12.1         -66.42          3.563          50.07          131.0          107.5
